<svg xmlns="http://www.w3.org/2000/svg" viewBox="0 0 1024 1024" role="img" aria-label="Civic Guide Mosaic app icon concept">
  <defs>
    <linearGradient id="bg" x1="128" y1="96" x2="896" y2="928" gradientUnits="userSpaceOnUse">
      <stop offset="0" stop-color="#111d26"/>
      <stop offset="1" stop-color="#06080d"/>
    </linearGradient>
    <filter id="shadow" x="-20%" y="-20%" width="140%" height="140%">
      <feDropShadow dx="0" dy="22" stdDeviation="26" flood-color="#000" flood-opacity="0.38"/>
    </filter>
  </defs>
  <rect width="1024" height="1024" rx="224" fill="url(#bg)"/>
  <g filter="url(#shadow)">
    <rect x="176" y="250" width="672" height="480" rx="86" fill="#101720" stroke="#344354" stroke-width="8"/>
    <rect x="230" y="304" width="158" height="110" rx="28" fill="#f6efe2"/>
    <rect x="434" y="304" width="158" height="110" rx="28" fill="#d9c9a9"/>
    <rect x="638" y="304" width="158" height="110" rx="28" fill="#ba9a55"/>
    <rect x="230" y="458" width="158" height="110" rx="28" fill="#d9c9a9"/>
    <rect x="434" y="458" width="158" height="110" rx="28" fill="#e4473f"/>
    <rect x="638" y="458" width="158" height="110" rx="28" fill="#f6efe2"/>
    <rect x="230" y="612" width="158" height="64" rx="24" fill="#f6efe2" opacity="0.58"/>
    <rect x="434" y="612" width="158" height="64" rx="24" fill="#d9c9a9" opacity="0.58"/>
    <rect x="638" y="612" width="158" height="64" rx="24" fill="#ba9a55" opacity="0.58"/>
  </g>
  <path d="M 478 478 L 478 548 L 548 513 Z" fill="#101720"/>
  <circle cx="762" cy="264" r="32" fill="#e4473f"/>
  <path d="M 282 782 H 742" stroke="#e4473f" stroke-width="30" stroke-linecap="round" opacity="0.88"/>
</svg>
