<svg xmlns="http://www.w3.org/2000/svg" viewBox="0 0 1024 1024" role="img" aria-label="Guide Chamber horseshoe app icon concept">
  <defs>
    <linearGradient id="bg" x1="128" y1="96" x2="904" y2="940" gradientUnits="userSpaceOnUse">
      <stop offset="0" stop-color="#14212a"/>
      <stop offset="1" stop-color="#06080d"/>
    </linearGradient>
    <filter id="softShadow" x="-20%" y="-20%" width="140%" height="140%">
      <feDropShadow dx="0" dy="24" stdDeviation="25" flood-color="#000" flood-opacity="0.38"/>
    </filter>
  </defs>
  <rect width="1024" height="1024" rx="224" fill="url(#bg)"/>
  <g fill="none" stroke-linecap="round" stroke-linejoin="round" filter="url(#softShadow)">
    <path d="M 258 270 C 176 412 186 672 330 778 C 432 852 592 852 694 778 C 838 672 848 412 766 270" stroke="#f6efe2" stroke-width="34" stroke-dasharray="36 28"/>
    <path d="M 326 320 C 262 430 270 640 384 724 C 458 778 566 778 640 724 C 754 640 762 430 698 320" stroke="#e4d6bb" stroke-width="32" stroke-dasharray="34 28" opacity="0.95"/>
    <path d="M 390 372 C 344 450 350 606 432 666 C 482 702 542 702 592 666 C 674 606 680 450 634 372" stroke="#ba9a55" stroke-width="30" stroke-dasharray="30 28"/>
    <path d="M 216 224 C 114 396 128 720 302 848 C 424 938 600 938 722 848 C 896 720 910 396 808 224" stroke="#f6efe2" stroke-width="22" stroke-dasharray="24 34" opacity="0.5"/>
  </g>
  <circle cx="512" cy="520" r="116" fill="#101822" stroke="#364657" stroke-width="6"/>
  <path d="M 480 460 L 480 580 L 592 520 Z" fill="#e4473f"/>
  <path d="M 354 836 H 670" stroke="#e4473f" stroke-width="28" stroke-linecap="round" opacity="0.86"/>
</svg>
