<svg xmlns="http://www.w3.org/2000/svg" viewBox="0 0 1024 1024" role="img" aria-label="Clean live-dot Guide Chamber app icon concept">
  <defs>
    <linearGradient id="bg" x1="120" y1="84" x2="900" y2="944" gradientUnits="userSpaceOnUse">
      <stop offset="0" stop-color="#182432"/>
      <stop offset="1" stop-color="#06080d"/>
    </linearGradient>
    <filter id="lift" x="-30%" y="-30%" width="160%" height="160%">
      <feDropShadow dx="0" dy="12" stdDeviation="10" flood-color="#000" flood-opacity="0.32"/>
    </filter>
  </defs>
  <rect width="1024" height="1024" rx="224" fill="url(#bg)"/>
  <g fill="#f7efdf" filter="url(#lift)">
    <g transform="translate(512 602)">
      <rect x="-226" y="-42" width="64" height="54" rx="16" transform="rotate(-62 -194 -15)"/>
      <rect x="-158" y="-100" width="64" height="54" rx="16" transform="rotate(-38 -126 -73)"/>
      <rect x="-72" y="-130" width="64" height="54" rx="16" transform="rotate(-13 -40 -103)"/>
      <rect x="8" y="-130" width="64" height="54" rx="16" transform="rotate(13 40 -103)"/>
      <rect x="94" y="-100" width="64" height="54" rx="16" transform="rotate(38 126 -73)"/>
      <rect x="162" y="-42" width="64" height="54" rx="16" transform="rotate(62 194 -15)"/>
    </g>
    <g transform="translate(512 602)" opacity="0.9">
      <rect x="-314" y="-10" width="64" height="54" rx="16" transform="rotate(-71 -282 17)"/>
      <rect x="-266" y="-124" width="64" height="54" rx="16" transform="rotate(-55 -234 -97)"/>
      <rect x="-178" y="-212" width="64" height="54" rx="16" transform="rotate(-34 -146 -185)"/>
      <rect x="-72" y="-254" width="64" height="54" rx="16" transform="rotate(-10 -40 -227)"/>
      <rect x="8" y="-254" width="64" height="54" rx="16" transform="rotate(10 40 -227)"/>
      <rect x="114" y="-212" width="64" height="54" rx="16" transform="rotate(34 146 -185)"/>
      <rect x="202" y="-124" width="64" height="54" rx="16" transform="rotate(55 234 -97)"/>
      <rect x="250" y="-10" width="64" height="54" rx="16" transform="rotate(71 282 17)"/>
    </g>
    <g transform="translate(512 602)" opacity="0.64">
      <rect x="-390" y="28" width="64" height="54" rx="16" transform="rotate(-76 -358 55)"/>
      <rect x="-356" y="-106" width="64" height="54" rx="16" transform="rotate(-64 -324 -79)"/>
      <rect x="-276" y="-230" width="64" height="54" rx="16" transform="rotate(-48 -244 -203)"/>
      <rect x="-160" y="-312" width="64" height="54" rx="16" transform="rotate(-27 -128 -285)"/>
      <rect x="-40" y="-344" width="64" height="54" rx="16" transform="rotate(-7 -8 -317)"/>
      <rect x="40" y="-344" width="64" height="54" rx="16" transform="rotate(7 72 -317)"/>
      <rect x="160" y="-312" width="64" height="54" rx="16" transform="rotate(27 192 -285)"/>
      <rect x="276" y="-230" width="64" height="54" rx="16" transform="rotate(48 308 -203)"/>
      <rect x="356" y="-106" width="64" height="54" rx="16" transform="rotate(64 388 -79)"/>
      <rect x="390" y="28" width="64" height="54" rx="16" transform="rotate(76 422 55)"/>
    </g>
  </g>
  <circle cx="512" cy="656" r="116" fill="#101720" opacity="0.95"/>
  <path d="M 476 586 L 476 726 L 610 656 Z" fill="#ff3b30"/>
  <circle cx="512" cy="304" r="30" fill="#ff3b30"/>
</svg>
