<svg xmlns="http://www.w3.org/2000/svg" viewBox="0 0 1024 1024" role="img" aria-label="Guide Chamber semicircle app icon concept">
  <defs>
    <linearGradient id="bg" x1="160" y1="80" x2="864" y2="944" gradientUnits="userSpaceOnUse">
      <stop offset="0" stop-color="#13202b"/>
      <stop offset="1" stop-color="#080b10"/>
    </linearGradient>
    <filter id="softShadow" x="-20%" y="-20%" width="140%" height="140%">
      <feDropShadow dx="0" dy="24" stdDeviation="26" flood-color="#000" flood-opacity="0.36"/>
    </filter>
  </defs>
  <rect width="1024" height="1024" rx="224" fill="url(#bg)"/>
  <circle cx="512" cy="588" r="336" fill="none" stroke="#243342" stroke-width="3" opacity="0.75"/>
  <g fill="none" stroke-linecap="round" filter="url(#softShadow)">
    <path d="M 258 636 A 254 254 0 0 1 766 636" stroke="#f6efe2" stroke-width="30" stroke-dasharray="34 24"/>
    <path d="M 214 700 A 318 318 0 0 1 810 700" stroke="#e4d6bb" stroke-width="28" stroke-dasharray="32 26" opacity="0.95"/>
    <path d="M 174 768 A 386 386 0 0 1 850 768" stroke="#ba9a55" stroke-width="26" stroke-dasharray="30 28" opacity="0.9"/>
    <path d="M 138 838 A 452 452 0 0 1 886 838" stroke="#f6efe2" stroke-width="20" stroke-dasharray="22 30" opacity="0.58"/>
  </g>
  <circle cx="512" cy="610" r="124" fill="#121922" stroke="#364657" stroke-width="6"/>
  <path d="M 478 548 L 478 672 L 596 610 Z" fill="#e4473f"/>
  <g opacity="0.72">
    <circle cx="512" cy="438" r="10" fill="#e4473f"/>
    <path d="M 482 440 A 30 30 0 0 1 542 440" fill="none" stroke="#e4473f" stroke-width="10" stroke-linecap="round"/>
  </g>
</svg>
