<svg xmlns="http://www.w3.org/2000/svg" viewBox="0 0 1024 1024" role="img" aria-label="Clean compact Guide Chamber app icon concept">
  <defs>
    <linearGradient id="bg" x1="148" y1="84" x2="876" y2="940" gradientUnits="userSpaceOnUse">
      <stop offset="0" stop-color="#172230"/>
      <stop offset="1" stop-color="#070a10"/>
    </linearGradient>
    <filter id="seatShadow" x="-40%" y="-40%" width="180%" height="180%">
      <feDropShadow dx="0" dy="10" stdDeviation="8" flood-color="#000" flood-opacity="0.4"/>
    </filter>
    <filter id="playGlow" x="-60%" y="-60%" width="220%" height="220%">
      <feDropShadow dx="0" dy="10" stdDeviation="14" flood-color="#ff463d" flood-opacity="0.5"/>
    </filter>
  </defs>
  <rect width="1024" height="1024" rx="224" fill="url(#bg)"/>
  <g fill="#f7edda" filter="url(#seatShadow)">
    <g transform="translate(512 566)">
      <rect x="-236" y="-28" width="70" height="44" rx="14" transform="rotate(-64 -201 -6)"/>
      <rect x="-166" y="-90" width="70" height="44" rx="14" transform="rotate(-43 -131 -68)"/>
      <rect x="-76" y="-124" width="70" height="44" rx="14" transform="rotate(-18 -41 -102)"/>
      <rect x="6" y="-124" width="70" height="44" rx="14" transform="rotate(18 41 -102)"/>
      <rect x="96" y="-90" width="70" height="44" rx="14" transform="rotate(43 131 -68)"/>
      <rect x="166" y="-28" width="70" height="44" rx="14" transform="rotate(64 201 -6)"/>
    </g>
    <g transform="translate(512 566)" opacity="0.95">
      <rect x="-326" y="0" width="70" height="44" rx="14" transform="rotate(-72 -291 22)"/>
      <rect x="-278" y="-112" width="70" height="44" rx="14" transform="rotate(-56 -243 -90)"/>
      <rect x="-194" y="-198" width="70" height="44" rx="14" transform="rotate(-38 -159 -176)"/>
      <rect x="-94" y="-248" width="70" height="44" rx="14" transform="rotate(-14 -59 -226)"/>
      <rect x="24" y="-248" width="70" height="44" rx="14" transform="rotate(14 59 -226)"/>
      <rect x="124" y="-198" width="70" height="44" rx="14" transform="rotate(38 159 -176)"/>
      <rect x="208" y="-112" width="70" height="44" rx="14" transform="rotate(56 243 -90)"/>
      <rect x="256" y="0" width="70" height="44" rx="14" transform="rotate(72 291 22)"/>
    </g>
    <g transform="translate(512 566)" opacity="0.82">
      <rect x="-406" y="28" width="70" height="44" rx="14" transform="rotate(-76 -371 50)"/>
      <rect x="-370" y="-106" width="70" height="44" rx="14" transform="rotate(-62 -335 -84)"/>
      <rect x="-286" y="-222" width="70" height="44" rx="14" transform="rotate(-48 -251 -200)"/>
      <rect x="-174" y="-300" width="70" height="44" rx="14" transform="rotate(-28 -139 -278)"/>
      <rect x="-54" y="-334" width="70" height="44" rx="14" transform="rotate(-8 -19 -312)"/>
      <rect x="54" y="-334" width="70" height="44" rx="14" transform="rotate(8 89 -312)"/>
      <rect x="174" y="-300" width="70" height="44" rx="14" transform="rotate(28 209 -278)"/>
      <rect x="286" y="-222" width="70" height="44" rx="14" transform="rotate(48 321 -200)"/>
      <rect x="370" y="-106" width="70" height="44" rx="14" transform="rotate(62 405 -84)"/>
      <rect x="406" y="28" width="70" height="44" rx="14" transform="rotate(76 441 50)"/>
    </g>
  </g>
  <path d="M 470 596 L 470 720 L 596 658 Z" fill="#ff3b30" filter="url(#playGlow)"/>
</svg>
