<svg xmlns="http://www.w3.org/2000/svg" viewBox="0 0 1024 1024" role="img" aria-label="Guide Chamber broadcast app icon concept">
  <defs>
    <linearGradient id="bg" x1="120" y1="80" x2="900" y2="940" gradientUnits="userSpaceOnUse">
      <stop offset="0" stop-color="#182536"/>
      <stop offset="1" stop-color="#06080d"/>
    </linearGradient>
    <filter id="glow" x="-60%" y="-60%" width="220%" height="220%">
      <feDropShadow dx="0" dy="0" stdDeviation="16" flood-color="#ff3b30" flood-opacity="0.4"/>
    </filter>
    <rect id="seat" x="476" y="314" width="72" height="42" rx="14"/>
  </defs>
  <rect width="1024" height="1024" rx="224" fill="url(#bg)"/>
  <path d="M 318 252 A 292 292 0 0 1 706 252" fill="none" stroke="#ff3b30" stroke-width="22" stroke-linecap="round" opacity="0.72"/>
  <circle cx="512" cy="304" r="25" fill="#ff3b30" filter="url(#glow)"/>
  <g fill="#f8efdf">
    <use href="#seat" transform="rotate(-60 512 704)"/>
    <use href="#seat" transform="rotate(-40 512 704)"/>
    <use href="#seat" transform="rotate(-20 512 704)"/>
    <use href="#seat"/>
    <use href="#seat" transform="rotate(20 512 704)"/>
    <use href="#seat" transform="rotate(40 512 704)"/>
    <use href="#seat" transform="rotate(60 512 704)"/>
  </g>
  <g fill="#d8c8ac" opacity="0.9">
    <rect x="474" y="412" width="76" height="42" rx="14" transform="rotate(-45 512 704)"/>
    <rect x="474" y="412" width="76" height="42" rx="14" transform="rotate(-22 512 704)"/>
    <rect x="474" y="412" width="76" height="42" rx="14"/>
    <rect x="474" y="412" width="76" height="42" rx="14" transform="rotate(22 512 704)"/>
    <rect x="474" y="412" width="76" height="42" rx="14" transform="rotate(45 512 704)"/>
  </g>
  <circle cx="512" cy="666" r="116" fill="#101720"/>
  <path d="M 476 596 L 476 736 L 612 666 Z" fill="#ff3b30"/>
</svg>
