<svg xmlns="http://www.w3.org/2000/svg" viewBox="0 0 1024 1024" role="img" aria-label="Minimal Guide Chamber app icon concept">
  <defs>
    <linearGradient id="bg" x1="120" y1="80" x2="900" y2="940" gradientUnits="userSpaceOnUse">
      <stop offset="0" stop-color="#141f2c"/>
      <stop offset="1" stop-color="#05070c"/>
    </linearGradient>
    <rect id="seat" x="472" y="300" width="80" height="46" rx="15"/>
  </defs>
  <rect width="1024" height="1024" rx="224" fill="url(#bg)"/>
  <g fill="#f8efdf">
    <use href="#seat" transform="rotate(-63 512 700)"/>
    <use href="#seat" transform="rotate(-42 512 700)"/>
    <use href="#seat" transform="rotate(-21 512 700)"/>
    <use href="#seat"/>
    <use href="#seat" transform="rotate(21 512 700)"/>
    <use href="#seat" transform="rotate(42 512 700)"/>
    <use href="#seat" transform="rotate(63 512 700)"/>
  </g>
  <g fill="#d7c7a9" opacity="0.92">
    <use href="#seat" transform="translate(0 98) rotate(-52 512 700) scale(0.86 0.86)"/>
    <use href="#seat" transform="translate(0 98) rotate(-26 512 700) scale(0.86 0.86)"/>
    <use href="#seat" transform="translate(0 98) scale(0.86 0.86)"/>
    <use href="#seat" transform="translate(0 98) rotate(26 512 700) scale(0.86 0.86)"/>
    <use href="#seat" transform="translate(0 98) rotate(52 512 700) scale(0.86 0.86)"/>
  </g>
  <path d="M 476 590 L 476 728 L 612 660 Z" fill="#ff3b30"/>
</svg>
