<svg xmlns="http://www.w3.org/2000/svg" viewBox="0 0 1024 1024" role="img" aria-label="Guide Chamber identity arc app icon concept">
  <defs>
    <linearGradient id="bg" x1="120" y1="80" x2="900" y2="940" gradientUnits="userSpaceOnUse">
      <stop offset="0" stop-color="#172232"/>
      <stop offset="1" stop-color="#05070c"/>
    </linearGradient>
    <filter id="shadow" x="-40%" y="-40%" width="180%" height="180%">
      <feDropShadow dx="0" dy="12" stdDeviation="8" flood-color="#000000" flood-opacity="0.28"/>
    </filter>
    <rect id="seat-large" x="468" y="238" width="88" height="48" rx="15"/>
    <rect id="seat-mid" x="472" y="326" width="80" height="44" rx="14"/>
    <rect id="seat-small" x="478" y="414" width="68" height="38" rx="12"/>
  </defs>
  <rect width="1024" height="1024" rx="224" fill="url(#bg)"/>
  <g filter="url(#shadow)">
    <g fill="#f7eddc">
      <use href="#seat-large" transform="rotate(-62 512 704)"/>
      <use href="#seat-large" transform="rotate(-42 512 704)"/>
      <use href="#seat-large" transform="rotate(-21 512 704)"/>
      <use href="#seat-large"/>
      <use href="#seat-large" transform="rotate(21 512 704)"/>
      <use href="#seat-large" transform="rotate(42 512 704)"/>
      <use href="#seat-large" transform="rotate(62 512 704)"/>
    </g>
    <g fill="#e3d4ba">
      <use href="#seat-mid" transform="rotate(-57 512 704)"/>
      <use href="#seat-mid" transform="rotate(-34 512 704)"/>
      <use href="#seat-mid" transform="rotate(-12 512 704)"/>
      <use href="#seat-mid" transform="rotate(12 512 704)"/>
      <use href="#seat-mid" transform="rotate(34 512 704)"/>
      <use href="#seat-mid" transform="rotate(57 512 704)"/>
    </g>
    <g fill="#f7eddc">
      <use href="#seat-small" transform="rotate(-45 512 704)"/>
      <use href="#seat-small" transform="rotate(-22 512 704)"/>
      <use href="#seat-small"/>
      <use href="#seat-small" transform="rotate(22 512 704)"/>
      <use href="#seat-small" transform="rotate(45 512 704)"/>
    </g>
  </g>
  <circle cx="512" cy="662" r="112" fill="#0b1119" opacity="0.74"/>
  <path d="M 475 594 L 475 730 L 610 662 Z" fill="#ff3b30"/>
</svg>
