<svg xmlns="http://www.w3.org/2000/svg" viewBox="0 0 1024 1024" role="img" aria-label="Live Floor Dais app icon concept">
  <defs>
    <linearGradient id="bg" x1="148" y1="96" x2="876" y2="936" gradientUnits="userSpaceOnUse">
      <stop offset="0" stop-color="#14202a"/>
      <stop offset="1" stop-color="#07090e"/>
    </linearGradient>
    <filter id="shadow" x="-20%" y="-20%" width="140%" height="140%">
      <feDropShadow dx="0" dy="22" stdDeviation="24" flood-color="#000" flood-opacity="0.4"/>
    </filter>
  </defs>
  <rect width="1024" height="1024" rx="224" fill="url(#bg)"/>
  <g filter="url(#shadow)">
    <path d="M 228 612 C 330 532 432 500 512 500 C 592 500 694 532 796 612" fill="none" stroke="#f6efe2" stroke-width="34" stroke-linecap="round" stroke-dasharray="38 34"/>
    <path d="M 176 708 C 302 596 424 552 512 552 C 600 552 722 596 848 708" fill="none" stroke="#d9c9a9" stroke-width="30" stroke-linecap="round" stroke-dasharray="32 34" opacity="0.82"/>
    <rect x="340" y="286" width="344" height="260" rx="76" fill="#101720" stroke="#344354" stroke-width="8"/>
    <path d="M 420 446 H 604" stroke="#ba9a55" stroke-width="26" stroke-linecap="round"/>
    <path d="M 456 386 H 568" stroke="#f6efe2" stroke-width="24" stroke-linecap="round"/>
    <path d="M 494 288 V 202" stroke="#e4473f" stroke-width="22" stroke-linecap="round"/>
    <circle cx="494" cy="182" r="24" fill="#e4473f"/>
    <path d="M 536 356 L 536 450 L 620 403 Z" fill="#e4473f"/>
    <rect x="272" y="770" width="480" height="30" rx="15" fill="#e4473f" opacity="0.9"/>
  </g>
</svg>
